<?xml version="1.0" encoding="utf-8" ?><svg xmlns="http://www.w3.org/2000/svg" xmlns:xlink="http://www.w3.org/1999/xlink" width="1024" height="1024" viewBox="0 0 1024 1024"><path fill="#983E0A" d="M512.022 188.227C597.827 186.782 676.515 213.242 739.819 272.178C800.442 328.618 836.673 411.15 839.641 493.688C843.611 589.368 809.039 682.643 743.669 752.622C684.279 817.453 601.156 855.457 513.269 857.96C423.557 857.494 347.121 827.949 281.386 766.415C221.923 710.166 187.276 632.576 185.084 550.753C181.178 454.534 216.232 360.804 282.317 290.76C328.827 241.031 389.755 207.13 456.532 193.827C475.044 190.296 493.216 188.789 512.022 188.227Z"/><path fill="#FCE793" d="M500.681 192.25L501.246 192.218C570.567 189.631 638.11 214.498 689.203 261.419C749.25 316.756 781.183 394.009 784.29 475.05C791.171 654.528 656.306 825.715 471.5 833.056C470.973 833.088 470.446 833.115 469.918 833.138C342.269 838.537 232.778 747.386 200.721 627.123C194.045 602.076 189.658 577.364 188.552 551.416C184.592 457.849 217.851 366.522 281.054 297.414C338.15 235.272 415.848 195.826 500.681 192.25Z"/><path fill="#BF5D12" d="M193.042 535.945C192.7 522.946 195.304 504.689 197.351 491.909C208.64 418.655 242.442 350.728 294.071 297.547C361.702 227.474 459.247 189.509 556.436 205.162C591.16 211.805 627.302 225.006 656.432 245.303C674.006 256.601 690.292 271.46 704.466 286.7C707.041 289.468 713.13 295.901 715.097 299.008C725.273 311.72 734.609 327.602 742.607 341.836C745.77 347.007 750.713 357.063 752.842 362.96C786.452 436.55 783.147 528.735 755.203 603.584C745.856 628.235 733.752 651.75 719.121 673.681C676.778 738.24 615.31 788.746 541.587 813.042C484.572 832.226 422.686 831.17 366.359 810.051C355.118 805.806 343.878 800.016 333.569 793.865C323.553 789.763 307.299 777.397 298.74 770.339C292.779 765.015 286.826 761.047 280.525 755.056C261.331 738.683 240.684 712.693 230.089 689.817C204.476 644.12 191.6 588.223 193.042 535.945Z"/><defs><linearGradient id="gradient_0" gradientUnits="userSpaceOnUse" x1="537.53986" y1="570.15466" x2="687.23969" y2="715.51428"><stop offset="0" stop-color="#F3A52B"/><stop offset="1" stop-color="#FAC759"/></linearGradient></defs><path fill="url(#gradient_0)" d="M678.132 337.926C686.379 330.262 695.671 318.757 703.765 310.537C707.109 307.142 711.378 301.747 715.097 299.008C725.273 311.72 734.609 327.602 742.607 341.836C745.77 347.007 750.713 357.063 752.842 362.96C786.452 436.55 783.147 528.735 755.203 603.584C745.856 628.235 733.752 651.75 719.121 673.681C676.778 738.24 615.31 788.746 541.587 813.042C484.572 832.226 422.686 831.17 366.359 810.051C355.118 805.806 343.878 800.016 333.569 793.865C323.553 789.763 307.299 777.397 298.74 770.339C304.332 763.995 311.387 757.467 317.329 751.323C322.7 745.77 328.299 739.685 334.003 734.596C370.627 759.514 412.009 774.531 456.556 775.771C523.095 777.187 587.48 752.155 635.59 706.167C696.717 648.314 726.745 578.756 729.082 494.949C728.016 455.713 723.666 430.225 709.96 393.883C708.398 389.204 705.74 383.804 703.652 379.247C695.253 362.672 689.316 352.883 678.132 337.926Z"/><defs><linearGradient id="gradient_1" gradientUnits="userSpaceOnUse" x1="463.21161" y1="587.32483" x2="620.93628" y2="728.19818"><stop offset="0" stop-color="#F6BB66"/><stop offset="1" stop-color="#FFF0A5"/></linearGradient></defs><path fill="url(#gradient_1)" d="M729.082 494.949C732.462 499.73 728.344 538.521 727.013 546.27C713.332 623.167 669.409 691.375 605.063 735.645C552.428 772.498 487.294 786.895 424.03 775.659C403.232 771.916 386.765 765.529 367.567 756.82C356.78 767.787 343.83 782.215 333.569 793.865C323.553 789.763 307.299 777.397 298.74 770.339C304.332 763.995 311.387 757.467 317.329 751.323C322.7 745.77 328.299 739.685 334.003 734.596C370.627 759.514 412.009 774.531 456.556 775.771C523.095 777.187 587.48 752.155 635.59 706.167C696.717 648.314 726.745 578.756 729.082 494.949Z"/><path fill="#F6B73C" d="M678.132 337.926C686.379 330.262 695.671 318.757 703.765 310.537C707.109 307.142 711.378 301.747 715.097 299.008C725.273 311.72 734.609 327.602 742.607 341.836C735.495 347.993 728.278 355.099 721.368 361.56C716.343 366.26 707.747 373.874 703.652 379.247C695.253 362.672 689.316 352.883 678.132 337.926Z"/><path fill="#F6C36C" d="M742.607 341.836C745.77 347.007 750.713 357.063 752.842 362.96C750.377 361.291 749.093 356.987 747.915 354.039C742.421 360.018 735.454 366.537 729.742 372.555C725.769 376.74 713.555 391.189 709.96 393.883C708.398 389.204 705.74 383.804 703.652 379.247C707.747 373.874 716.343 366.26 721.368 361.56C728.278 355.099 735.495 347.993 742.607 341.836Z"/><path fill="#FCE793" d="M729.367 635.848C730.222 636.604 730.038 636.553 730.634 637.612C731.317 653.094 700.512 694.994 690.461 708.197C661.028 746.864 619.415 774.686 574.872 793.164C560.235 799.236 541.862 805.485 526.115 807.439L525.209 807.384L524.876 806.915C526.976 804.953 538.731 802.107 542.414 800.677C551.581 797.115 561.015 793.026 569.744 788.467C592.801 776.426 612.664 764.258 632.675 747.684C659.86 725.168 678.908 700.79 700.875 673.599C706.416 666.741 724.694 639.443 729.367 635.848Z"/><path fill="#FCE793" d="M757.703 540.349C758.538 541.467 758.475 541.214 758.616 542.928C759.73 556.459 753.828 580.513 745.601 591.093L744.878 590.085C743.973 584.685 754.728 545.298 757.703 540.349Z"/><path fill="#FAD267" d="M193.042 535.945C192.7 522.946 195.304 504.689 197.351 491.909C208.64 418.655 242.442 350.728 294.071 297.547C361.702 227.474 459.247 189.509 556.436 205.162C551.21 208.365 546.314 213.706 541.607 217.764C530.956 226.946 520.617 237.506 510.033 246.637C444.282 241.157 376.835 269.143 328.06 311.791C274.923 358.252 238.753 430.458 231.93 500.231C226.315 505.78 220.603 511.38 214.852 516.609C211.285 519.854 194.789 533.314 193.042 535.945Z"/><path fill="#FEFED6" d="M268.609 349.737C268.132 349.898 267.6 349.88 267.065 349.917C262.545 345.654 273.225 328.751 276.565 324.789C286.744 312.717 299.811 296.083 315.625 291.668C317.555 291.13 319.222 292.617 320.519 293.767C322.241 297.122 322.379 299.741 321.208 303.333C318.75 310.866 284.84 347.266 277.363 350.823C276.546 351.212 275.699 351.532 274.848 351.838C272.717 351.218 270.596 350.708 268.609 349.737Z"/><path fill="#FCE793" d="M320.519 293.767C322.241 297.122 322.379 299.741 321.208 303.333C318.75 310.866 284.84 347.266 277.363 350.823C276.546 351.212 275.699 351.532 274.848 351.838C272.717 351.218 270.596 350.708 268.609 349.737C272.607 346.373 275.91 342.808 279.339 338.874C290.886 325.627 303.595 313.562 315.576 300.751C317.594 298.593 319.082 296.328 320.519 293.767Z"/><path fill="#FCE793" d="M258.656 362.523C273.314 361.696 259.836 381.049 256.808 386.306C250.261 397.672 243.912 408.809 238.457 420.748C236.316 425.433 233.447 431.662 230.331 435.631C228.576 436.234 228.629 436.273 226.666 436.275C215.494 429.572 241.687 369.739 258.656 362.523Z"/><path fill="#F6B73C" d="M193.042 535.945C194.789 533.314 211.285 519.854 214.852 516.609C220.603 511.38 226.315 505.78 231.93 500.231C228.449 540.879 231.417 583.488 245.836 622.013C248.949 630.119 252.372 638.102 256.097 645.945C256.903 647.648 261.503 656.819 261.891 658.026C258.63 662.507 244.023 678.535 240.012 681.867C249.819 702.762 262.497 722.184 277.679 739.569C279.228 741.321 283.552 746.206 285.169 747.501C287.963 750.497 292.153 754.733 294.479 757.932C290.02 755.998 286.655 754.343 282.553 751.655C281.121 752.872 281.114 753.299 280.525 755.056C261.331 738.683 240.684 712.693 230.089 689.817C204.476 644.12 191.6 588.223 193.042 535.945Z"/><path fill="#FCE793" d="M222.596 644.188C225.314 648.158 227.579 654.151 229.48 658.702C232.853 666.778 235.769 674.157 240.012 681.867C249.819 702.762 262.497 722.184 277.679 739.569C279.228 741.321 283.552 746.206 285.169 747.501C287.963 750.497 292.153 754.733 294.479 757.932C290.02 755.998 286.655 754.343 282.553 751.655C281.121 752.872 281.114 753.299 280.525 755.056C261.331 738.683 240.684 712.693 230.089 689.817C232.685 689.148 232.52 689.186 234.541 687.214C229.717 677.591 223.328 655.228 222.596 644.188Z"/><path fill="#F6C36C" d="M230.089 689.817C232.685 689.148 232.52 689.186 234.541 687.214C241.371 701.595 247.854 714.304 257.878 726.708C263.568 733.751 269.188 740.109 276.127 745.982C276.9 746.636 282.418 751.415 282.553 751.655C281.121 752.872 281.114 753.299 280.525 755.056C261.331 738.683 240.684 712.693 230.089 689.817Z"/><path fill="#F2AC34" d="M231.93 500.231C238.753 430.458 274.923 358.252 328.06 311.791C376.835 269.143 444.282 241.157 510.033 246.637C525.855 248.22 543.13 249.853 557.88 256.091C557.294 256.284 556.707 256.477 556.121 256.67C546.882 254.664 538.062 252.328 528.656 251.062C519.344 249.81 509.963 249.144 500.568 249.068C495.568 248.993 490.568 249.105 485.572 249.295C418.539 251.849 350.731 288.776 306.614 338.496C290.272 357.253 276.329 377.972 265.11 400.176C236.408 456.749 227.297 521.249 239.205 583.558C249.043 633.913 272.523 679.916 310.274 715.116C317.898 722.225 325.797 728.242 334.003 734.596C328.299 739.685 322.7 745.77 317.329 751.323C311.387 757.467 304.332 763.995 298.74 770.339C292.779 765.015 286.826 761.047 280.525 755.056C281.114 753.299 281.121 752.872 282.553 751.655C286.655 754.343 290.02 755.998 294.479 757.932C292.153 754.733 287.963 750.497 285.169 747.501C283.552 746.206 279.228 741.321 277.679 739.569C262.497 722.184 249.819 702.762 240.012 681.867C244.023 678.535 258.63 662.507 261.891 658.026C261.503 656.819 256.903 647.648 256.097 645.945C252.372 638.102 248.949 630.119 245.836 622.013C231.417 583.488 228.449 540.879 231.93 500.231Z"/><path fill="#F6C36C" d="M261.891 658.026C270.981 673.244 281.785 688.685 293.556 701.985C298.923 708.049 305.214 713.623 310.69 719.527C305.301 725.835 299.723 731.482 294.062 737.5C292.156 739.525 286.618 745.317 285.169 747.501C283.552 746.206 279.228 741.321 277.679 739.569C262.497 722.184 249.819 702.762 240.012 681.867C244.023 678.535 258.63 662.507 261.891 658.026Z"/><path fill="#F6B73C" d="M556.436 205.162C591.16 211.805 627.302 225.006 656.432 245.303C652.48 248.709 648.886 252.216 645.32 256.018C636.746 265.159 627.401 273.977 619.45 283.678C616.311 281.976 613.008 280.073 609.953 278.259C596.274 270.134 581.59 263.756 566.422 258.986C563.73 258.139 561.012 257.341 558.356 256.284L557.88 256.091C543.13 249.853 525.855 248.22 510.033 246.637C520.617 237.506 530.956 226.946 541.607 217.764C546.314 213.706 551.21 208.365 556.436 205.162Z"/><path fill="#F6C36C" d="M656.432 245.303C674.006 256.601 690.292 271.46 704.466 286.7C707.041 289.468 713.13 295.901 715.097 299.008C711.378 301.747 707.109 307.142 703.765 310.537C695.671 318.757 686.379 330.262 678.132 337.926C662.046 316.493 641.694 298.455 619.45 283.678C627.401 273.977 636.746 265.159 645.32 256.018C648.886 252.216 652.48 248.709 656.432 245.303Z"/><path fill="#FCE793" d="M486.745 771.047C462.12 776.728 418.605 769.3 394.574 761.809C341.36 745.22 293.527 703.933 267.735 654.779C234.736 590.987 228.155 516.774 249.413 448.171C264.074 399.964 291.283 356.519 328.254 322.284C365.682 287.098 412.446 263.124 463.058 254.84C517.911 245.862 578.266 258.961 623.708 291.113C627.275 293.637 633.611 295.969 635.58 299.819C652.641 312.076 663.824 323.754 676.281 340.608C683.055 349.607 691.478 362.114 696.173 372.333C699.817 379.051 703.087 385.964 705.969 393.042C733.393 459.623 731.631 536.526 704.02 602.747C675.867 671.816 621.292 726.777 552.423 755.416C536.519 761.952 504.126 770.609 486.745 771.047Z"/><path fill="#F6B73C" d="M486.745 771.047C462.12 776.728 418.605 769.3 394.574 761.809C341.36 745.22 293.527 703.933 267.735 654.779C234.736 590.987 228.155 516.774 249.413 448.171C264.074 399.964 291.283 356.519 328.254 322.284C365.682 287.098 412.446 263.124 463.058 254.84C517.911 245.862 578.266 258.961 623.708 291.113C627.275 293.637 633.611 295.969 635.58 299.819C629.399 296.937 621.655 292.375 615.097 289.102C600.607 303.354 586.133 319.769 571.68 334.382C564.005 342.142 549.465 356.961 542.941 365.257C535.331 363.029 529.175 362.018 521.194 361.598C501.301 360.551 481.438 361.464 461.539 361.552C441.977 361.674 422.342 361.777 402.778 362.013C400.504 362.135 396.954 362.508 394.965 363.392C393.53 364.03 391.639 368.471 391.369 369.894C388.672 384.085 387.578 398.515 384.435 412.645C383.632 416.251 385.54 419.346 389.003 420.688L390.442 421.083C393.625 427.357 393.196 426.988 399.927 429.608L365.567 461.056C360.146 465.954 354.62 470.693 349.207 475.61C345.011 479.421 346.968 485.147 351.834 485.574L353.418 486.132L353.608 486.632C355.051 490.322 355.801 491.384 358.79 493.924C365.818 494.169 373.269 494.042 380.14 494.39C377.723 511.6 375.172 528.792 372.489 545.963L372.451 546.601C371.926 554.398 370.113 564.866 368.913 572.692L362.733 612.865C361.642 619.981 360.343 627.171 359.671 634.364C358.775 643.972 367.408 638.649 368.547 646.264C369.096 649.537 371.943 649.951 374.605 650.219L375.391 650.795C372.464 656.941 331.241 697.831 324.3 705.414C330.051 711.868 341.372 721.086 348.286 726.378C358.515 734.292 366.804 739.553 378.031 745.715C409.68 764.649 450.432 771.374 486.745 771.047Z"/><path fill="#D67017" d="M486.745 771.047C462.12 776.728 418.605 769.3 394.574 761.809C341.36 745.22 293.527 703.933 267.735 654.779C234.736 590.987 228.155 516.774 249.413 448.171C264.074 399.964 291.283 356.519 328.254 322.284C365.682 287.098 412.446 263.124 463.058 254.84C517.911 245.862 578.266 258.961 623.708 291.113C627.275 293.637 633.611 295.969 635.58 299.819C629.399 296.937 621.655 292.375 615.097 289.102C594.112 277.412 564.063 269.016 540.15 267.505C536.719 269.39 522.012 268.41 517.129 268.733C504.773 269.55 493.595 270.979 481.476 273.495C349.412 300.918 258.47 430.648 264.714 563.173C264.971 568.621 265.518 574.119 266.046 579.545C266.699 586.001 269.434 595.483 268.511 601.629C271.93 615.639 276.066 626.643 281.609 640.041C293.529 667.13 305.359 683.457 324.3 705.414C330.051 711.868 341.372 721.086 348.286 726.378C358.515 734.292 366.804 739.553 378.031 745.715C409.68 764.649 450.432 771.374 486.745 771.047Z"/><path fill="#EB9A28" d="M268.511 601.629C255.641 557.552 258.379 513.143 268.687 469.017C285.598 399.16 329.526 338.863 390.834 301.351C427.988 278.433 475.494 264.063 519.244 265.696C524.906 265.908 534.816 266.261 540.15 267.505C536.719 269.39 522.012 268.41 517.129 268.733C504.773 269.55 493.595 270.979 481.476 273.495C349.412 300.918 258.47 430.648 264.714 563.173C264.971 568.621 265.518 574.119 266.046 579.545C266.699 586.001 269.434 595.483 268.511 601.629Z"/><path fill="#F6C36C" d="M281.609 640.041C299.837 619.891 321.325 598.917 340.383 579.067C346.446 572.789 352.444 566.448 358.375 560.045C361.631 556.56 368.806 548.792 372.489 545.963L372.451 546.601C371.926 554.398 370.113 564.866 368.913 572.692L362.733 612.865C361.642 619.981 360.343 627.171 359.671 634.364C358.775 643.972 367.408 638.649 368.547 646.264C369.096 649.537 371.943 649.951 374.605 650.219L375.391 650.795C372.464 656.941 331.241 697.831 324.3 705.414C305.359 683.457 293.529 667.13 281.609 640.041Z"/><path fill="#EB9A28" d="M705.969 393.042C733.393 459.623 731.631 536.526 704.02 602.747C675.867 671.816 621.292 726.777 552.423 755.416C536.519 761.952 504.126 770.609 486.745 771.047C450.432 771.374 409.68 764.649 378.031 745.715C366.804 739.553 358.515 734.292 348.286 726.378C341.372 721.086 330.051 711.868 324.3 705.414C331.241 697.831 372.464 656.941 375.391 650.795L374.605 650.219C389.578 649.507 407.735 650.183 423.209 649.894C437.574 650.378 435.472 646.957 438.255 635.003C442.059 630.349 446.118 626.384 450.452 622.234C460.026 613.065 469.171 603.026 479.196 594.357L494.124 625.478C498.177 632.81 498.904 639.576 506.72 643.068C509.607 647.77 511.233 650.802 517.126 650.82C532.366 651.073 548.492 650.017 563.667 650.564C594.039 651.659 583.132 642.482 573.793 623.838C563.806 603.899 552.732 583.276 543.602 562.888C549.656 557.758 557.446 549.06 563.143 543.144C574.742 531.261 586.179 519.22 597.451 507.026L674.386 425.778C679.214 420.677 701.092 395.839 705.969 393.042Z"/><path fill="#F6C36C" d="M438.255 635.003C442.059 630.349 446.118 626.384 450.452 622.234C460.026 613.065 469.171 603.026 479.196 594.357L494.124 625.478C490.306 627.887 481.916 637.461 478.431 641.229C472.319 647.844 466.152 654.409 459.931 660.922C432.855 689.401 405.554 717.666 378.031 745.715C366.804 739.553 358.515 734.292 348.286 726.378C341.372 721.086 330.051 711.868 324.3 705.414C331.241 697.831 372.464 656.941 375.391 650.795L374.605 650.219C389.578 649.507 407.735 650.183 423.209 649.894C437.574 650.378 435.472 646.957 438.255 635.003Z"/><path fill="#F2AC34" d="M374.605 650.219C389.578 649.507 407.735 650.183 423.209 649.894C415.846 657.549 408.915 665.244 401.431 672.847C383.918 690.637 365.211 708.083 348.286 726.378C341.372 721.086 330.051 711.868 324.3 705.414C331.241 697.831 372.464 656.941 375.391 650.795L374.605 650.219Z"/><path fill="#F2AC34" d="M658.464 631.299C661.435 630.889 663.81 630.893 666.802 630.846L666.593 631.604C660.277 654.346 640.17 683.671 619.711 695.168C617.778 695.981 616.84 696.657 614.822 696.184C614.096 695.711 613.042 694.901 612.961 694.019C610.56 668.001 636.724 638.112 658.464 631.299Z"/><path fill="#F2AC34" d="M579.18 702.209L583.248 702.86C596.646 714.011 585.049 721.518 573.566 725.697C572.834 725.885 572.098 726.053 571.358 726.204C558.959 728.627 561.559 714.497 566.618 708.397C570.578 703.622 573.47 703.001 579.18 702.209Z"/><path fill="#F6C36C" d="M615.097 289.102C621.655 292.375 629.399 296.937 635.58 299.819C652.641 312.076 663.824 323.754 676.281 340.608C683.055 349.607 691.478 362.114 696.173 372.333C699.817 379.051 703.087 385.964 705.969 393.042C701.092 395.839 679.214 420.677 674.386 425.778L597.451 507.026C586.179 519.22 574.742 531.261 563.143 543.144C557.446 549.06 549.656 557.758 543.602 562.888C540.584 555.705 536.337 549.603 533.479 541.859C540.297 539.09 549.179 535.585 555.393 531.721C573.387 520.533 586.903 502.551 594.867 483.093C597.338 477.057 599.215 469.238 600.735 462.89C602.588 446.978 603.575 437.18 599.956 421.074C595.473 404.25 586.685 390.238 571.415 381.258C560.717 373.182 555.448 370.028 542.941 365.257C549.465 356.961 564.005 342.142 571.68 334.382C586.133 319.769 600.607 303.354 615.097 289.102Z"/><path fill="#F6C36C" d="M615.097 289.102C621.655 292.375 629.399 296.937 635.58 299.819C652.641 312.076 663.824 323.754 676.281 340.608C671.9 344.488 666.67 350.359 662.574 354.692L640.874 377.594L615.553 404.164C610.558 409.414 604.468 415.544 599.956 421.074C595.473 404.25 586.685 390.238 571.415 381.258C560.717 373.182 555.448 370.028 542.941 365.257C549.465 356.961 564.005 342.142 571.68 334.382C586.133 319.769 600.607 303.354 615.097 289.102Z"/><path fill="#F2AC34" d="M676.281 340.608C683.055 349.607 691.478 362.114 696.173 372.333C689.062 377 680.769 386.609 674.332 392.756C651.718 414.344 629.788 436.681 606.628 457.703C604.802 459.365 602.683 461.406 600.735 462.89C602.588 446.978 603.575 437.18 599.956 421.074C604.468 415.544 610.558 409.414 615.553 404.164L640.874 377.594L662.574 354.692C666.67 350.359 671.9 344.488 676.281 340.608Z"/><path fill="#BF5D12" d="M426.75 409.812C429.005 410.985 429.811 411.674 431.812 413.281L432.115 413.782C435.077 418.593 438.985 422.568 442.07 427.164C449.889 438.811 458.693 449.599 466.655 461.15C469.308 465.37 480.71 475.892 479.397 480.901C477.061 489.815 454.765 484.97 448.078 486.353C445.022 486.985 445.914 493.616 443.886 496.803L442.723 497.517C441.944 493.887 442.125 485.677 445.402 483.699C451.493 480.022 473.229 486.712 476.317 479.905C476.142 476.182 472.215 472.185 469.669 469.422C470.005 470.818 472.906 475.521 473.809 477.064C466.777 472.868 464.561 467.426 459.859 461.825L459.429 461.318C454.537 453.73 448.133 446.508 442.861 439.195C437.345 431.541 432.806 424.432 426.886 417.005C418.958 429.473 372.356 469.081 358.477 478.852C355.491 481.988 356.784 481.759 353.1 482.895C358.94 482.605 378.441 481.52 382.848 483.359C385.174 486.88 377.406 533.037 376.448 539.393L362.992 630.216C362.445 634.003 361.271 638.417 366.569 638.843C374.007 639.441 383.284 639.039 390.711 638.823C396.156 638.665 417.317 639.967 420.893 637.918C424.029 634.253 426.666 613.159 427.345 607.279C429.988 598.187 432.567 557.872 436.922 547.56C439.431 545.771 454.435 546.433 456.171 546.897C461.739 548.381 467.569 563.689 469.941 568.611L493.081 616.724C496.193 623.128 500.635 633.751 504.636 639.374C507.426 639.903 516.761 640.208 519.383 639.95C527.175 639.181 563.228 641.667 567.666 638.364C567.319 632.268 532.772 565.213 527.742 553.037C528.233 547.494 519.447 539.704 520.832 533.669L521.453 533.8L521.571 535.984C522.725 537.442 524.253 541.098 525.1 542.939L525.811 543.333C528.393 547.182 531.563 555.059 533.754 559.652L548.699 590.553C555.791 605.506 563.366 620.181 570.378 635.164C571.64 637.862 570.158 640.222 568.291 642.043C562.173 643.506 537.014 642.469 529.191 642.741C525.941 642.853 510.039 643.203 506.72 643.068C498.904 639.576 498.177 632.81 494.124 625.478L479.196 594.357C469.171 603.026 460.026 613.065 450.452 622.234C446.118 626.384 442.059 630.349 438.255 635.003C435.472 646.957 437.574 650.378 423.209 649.894C407.735 650.183 389.578 649.507 374.605 650.219C371.943 649.951 369.096 649.537 368.547 646.264C367.408 638.649 358.775 643.972 359.671 634.364C360.343 627.171 361.642 619.981 362.733 612.865L368.913 572.692C370.113 564.866 371.926 554.398 372.451 546.601L372.489 545.963C375.172 528.792 377.723 511.6 380.14 494.39C373.269 494.042 365.818 494.169 358.79 493.924C355.801 491.384 355.051 490.322 353.608 486.632L353.418 486.132L351.834 485.574C346.968 485.147 345.011 479.421 349.207 475.61C354.62 470.693 360.146 465.954 365.567 461.056L399.927 429.608C406.787 423.666 414.631 415.979 422.018 410.744C422.705 410.256 425.755 409.924 426.75 409.812Z"/><path fill="#F2AC34" d="M462.284 558.28C466.76 569.21 473.82 583.648 479.196 594.357C469.171 603.026 460.026 613.065 450.452 622.234C446.118 626.384 442.059 630.349 438.255 635.003C438.692 625.389 441.218 613.079 442.698 603.477C444.062 594.63 445.042 585.893 446.356 577.102C449.506 573.702 460.916 561.434 462.284 558.28Z"/><path fill="#FCE793" d="M409.016 425.329C412.243 425.842 419.37 414.95 423.557 414.103L423.686 414.663L421.443 417.71C422.421 416.871 423.287 416.265 424.327 415.523C425.92 415.58 425.388 415.529 426.886 417.005C418.958 429.473 372.356 469.081 358.477 478.852C355.491 481.988 356.784 481.759 353.1 482.895C351.083 482.433 350.625 482.145 349.99 480.305C350.168 479.427 350.401 478.384 351.091 477.756C357.786 471.667 365.004 465.372 371.733 459.403C384.302 448.2 396.73 436.842 409.016 425.329Z"/><path fill="#FCE793" d="M424.043 411.835C433.374 416.307 441.115 432.635 448.482 440.66C450.805 443.19 456.009 450.515 458.029 453.57C460.29 456.989 468.503 466.32 469.669 469.422C470.005 470.818 472.906 475.521 473.809 477.064C466.777 472.868 464.561 467.426 459.859 461.825L459.429 461.318C454.537 453.73 448.133 446.508 442.861 439.195C437.345 431.541 432.806 424.432 426.886 417.005C425.388 415.529 425.92 415.58 424.327 415.523C423.287 416.265 422.421 416.871 421.443 417.71L423.686 414.663L423.557 414.103C419.37 414.95 412.243 425.842 409.016 425.329C413.309 421.151 419.236 415.134 424.043 411.835Z"/><path fill="#D67017" d="M351.834 485.574C362.274 485.757 370.66 485.649 381.104 485.502C380.646 488.707 380.31 491.146 380.14 494.39C373.269 494.042 365.818 494.169 358.79 493.924C355.801 491.384 355.051 490.322 353.608 486.632L353.418 486.132L351.834 485.574Z"/><path fill="#F6C36C" d="M448.476 557.499C452.429 557.47 458.6 557.207 462.284 558.28C460.916 561.434 449.506 573.702 446.356 577.102C446.42 573.033 447.997 562.276 448.476 557.499Z"/><defs><linearGradient id="gradient_2" gradientUnits="userSpaceOnUse" x1="523.36621" y1="458.32083" x2="432.35385" y2="455.79471"><stop offset="0" stop-color="#B45418"/><stop offset="1" stop-color="#DF7A1F"/></linearGradient></defs><path fill="url(#gradient_2)" d="M435.333 402.874C440.178 408.596 445.205 414.16 450.409 419.558C463.428 418.814 475.819 418.936 488.867 418.971C491.405 418.642 493.095 418.4 495.681 418.367L495.542 418.387C487.046 414.655 455.533 419.689 450.228 416.081C454.252 415.913 458.638 415.918 462.682 416.035C486.62 416.731 524.594 410.481 525.073 445.819C525.215 459.348 520.041 472.392 510.664 482.145C499.027 494.058 481.398 499.014 465.125 498.602C460.836 498.494 445.477 499.964 442.723 497.517L443.886 496.803C445.914 493.616 445.022 486.985 448.078 486.353C454.765 484.97 477.061 489.815 479.397 480.901C480.71 475.892 469.308 465.37 466.655 461.15C458.693 449.599 449.889 438.811 442.07 427.164C438.985 422.568 435.077 418.593 432.115 413.782L431.812 413.281C429.811 411.674 429.005 410.985 426.75 409.812C429.954 407.57 432.366 404.792 435.333 402.874Z"/><path fill="#F6C36C" d="M498.247 427.394C506.112 427.558 510.898 428.42 518.441 430.964C523.01 437.546 522.965 445.014 522.002 452.737C520.375 465.787 512.902 478.46 501.976 485.87C499.607 487.477 493.393 491.039 490.836 491.484C490.31 488.905 492.427 487.333 490.903 485.279C482.591 474.084 473.75 462.888 465.745 451.497C472.951 444.862 480.969 434.998 488.81 427.518L498.247 427.394Z"/><path fill="#F2AC34" d="M435.333 402.874C440.178 408.596 445.205 414.16 450.409 419.558C463.428 418.814 475.819 418.936 488.867 418.971C499.988 419.556 512.333 419.803 518.441 430.964C510.898 428.42 506.112 427.558 498.247 427.394L488.81 427.518C480.969 434.998 472.951 444.862 465.745 451.497C461.075 445.346 456.505 439.069 451.785 432.97C445.803 425.241 442.094 415.374 431.812 413.281C429.811 411.674 429.005 410.985 426.75 409.812C429.954 407.57 432.366 404.792 435.333 402.874Z"/><path fill="#D67017" d="M450.409 419.558C463.428 418.814 475.819 418.936 488.867 418.971C499.988 419.556 512.333 419.803 518.441 430.964C510.898 428.42 506.112 427.558 498.247 427.394C492.544 426.512 484.842 427.453 478.925 427.202C467.192 426.704 458.497 430.278 450.409 419.558Z"/><path fill="#F6C36C" d="M457.075 494.209C462.116 494.207 477.268 493.48 481.081 494.651L480.835 495.044C476.862 495.982 462.879 496.596 458.404 495.562C457.383 495.326 457.596 495.199 457.075 494.209Z"/><defs><linearGradient id="gradient_3" gradientUnits="userSpaceOnUse" x1="385.88068" y1="452.54556" x2="427.07477" y2="494.44327"><stop offset="0" stop-color="#F4B13E"/><stop offset="1" stop-color="#F9CF66"/></linearGradient></defs><path fill="url(#gradient_3)" d="M358.477 478.852C372.356 469.081 418.958 429.473 426.886 417.005C432.806 424.432 437.345 431.541 442.861 439.195C448.133 446.508 454.537 453.73 459.429 461.318C458.116 461.025 454.646 456.193 453.58 454.742C450.657 459.835 448.82 465.004 446.138 470.274C443.673 475.121 438.123 478.846 435.85 482.01C428.997 491.548 426.531 497.113 416.248 504.073C415.536 504.053 414.95 504.057 414.242 503.972C412.911 504.796 413.457 504.482 412.691 505.719C408.712 512.149 392.983 530.388 384.25 524.117C380.464 525.914 380.889 545.554 378.698 547.968C378.829 542.526 380.438 536.463 381.172 530.975C382.83 518.588 384.134 506.407 386.18 494.033C386.658 491.147 387.893 483.322 385.668 480.708C380.998 476.982 363.898 479.822 358.477 478.852Z"/><path fill="#D67017" d="M571.415 381.258C586.685 390.238 595.473 404.25 599.956 421.074C603.575 437.18 602.588 446.978 600.735 462.89C599.215 469.238 597.338 477.057 594.867 483.093C586.903 502.551 573.387 520.533 555.393 531.721C549.179 535.585 540.297 539.09 533.479 541.859C536.337 549.603 540.584 555.705 543.602 562.888C552.732 583.276 563.806 603.899 573.793 623.838C583.132 642.482 594.039 651.659 563.667 650.564C548.492 650.017 532.366 651.073 517.126 650.82C511.233 650.802 509.607 647.77 506.72 643.068C510.039 643.203 525.941 642.853 529.191 642.741C537.014 642.469 562.173 643.506 568.291 642.043C570.158 640.222 571.64 637.862 570.378 635.164C563.366 620.181 555.791 605.506 548.699 590.553L533.754 559.652C531.563 555.059 528.393 547.182 525.811 543.333C525.64 541.36 522.797 536.583 521.733 534.647C530.107 531.081 535.826 528.382 543.698 523.772C563.381 512.245 581.288 490.345 586.781 467.836C592.533 443.598 593.777 419.033 582.126 396.223C579.305 390.7 574.375 386.473 571.415 381.258Z"/><path fill="#983E0A" d="M389.003 420.688C385.54 419.346 383.632 416.251 384.435 412.645C387.578 398.515 388.672 384.085 391.369 369.894C391.639 368.471 393.53 364.03 394.965 363.392C396.954 362.508 400.504 362.135 402.778 362.013C422.342 361.777 441.977 361.674 461.539 361.552C481.438 361.464 501.301 360.551 521.194 361.598C529.175 362.018 535.331 363.029 542.941 365.257C555.448 370.028 560.717 373.182 571.415 381.258C574.375 386.473 579.305 390.7 582.126 396.223C593.777 419.033 592.533 443.598 586.781 467.836C581.288 490.345 563.381 512.245 543.698 523.772C535.826 528.382 530.107 531.081 521.733 534.647C522.797 536.583 525.64 541.36 525.811 543.333L525.1 542.939C524.253 541.098 522.725 537.442 521.571 535.984L521.453 533.8L520.832 533.669C519.447 539.704 528.233 547.494 527.742 553.037C525.487 548.795 519.573 538.115 519.103 533.813C520.189 531.611 532.425 526.619 535.468 525.018C559.769 512.389 576.537 492.707 584.38 466.204C596.532 425.138 585.561 381.165 541.218 367.831C534.977 365.982 528.54 364.877 522.04 364.538C501.526 363.311 477.817 364.347 456.923 364.45C444.364 364.45 431.806 364.564 419.249 364.791C414.838 364.841 397.845 364.308 396.341 366.571C391.234 374.255 390.557 400.328 387.611 410.357C386.965 412.556 387.406 415.852 388.377 417.098C394.408 418.382 417.687 394.359 427.175 390.5C432.695 394.191 443.983 409.766 450.228 416.081C455.533 419.689 487.046 414.655 495.542 418.387L495.681 418.367C493.095 418.4 491.405 418.642 488.867 418.971C475.819 418.936 463.428 418.814 450.409 419.558C445.205 414.16 440.178 408.596 435.333 402.874C432.366 404.792 429.954 407.57 426.75 409.812C425.755 409.924 422.705 410.256 422.018 410.744C414.631 415.979 406.787 423.666 399.927 429.608C393.196 426.988 393.625 427.357 390.442 421.083L389.003 420.688Z"/><path fill="#D67017" d="M426.725 392.803C429.953 395.034 434.081 399.094 435.333 402.874C432.366 404.792 429.954 407.57 426.75 409.812C425.755 409.924 422.705 410.256 422.018 410.744C414.631 415.979 406.787 423.666 399.927 429.608C393.196 426.988 393.625 427.357 390.442 421.083L389.003 420.688C390.155 420.525 391.82 420.292 392.762 419.578C404.122 410.971 415.908 401.998 426.725 392.803Z"/><defs><linearGradient id="gradient_4" gradientUnits="userSpaceOnUse" x1="422.09363" y1="630.08533" x2="406.10684" y2="615.40961"><stop offset="0" stop-color="#F5BA4C"/><stop offset="1" stop-color="#FCDA7A"/></linearGradient></defs><path fill="url(#gradient_4)" d="M388.019 635.018C392.799 629.873 420.473 598.901 424.663 597.267L425.223 598.331C424.075 605.331 421.255 631.334 418.78 635.52C417.21 636.431 406.419 635.357 403.214 635.38C398.647 634.385 392.689 634.779 388.019 635.018Z"/><path fill="#FCE793" d="M425.223 598.331C425.855 596.379 425.452 596.516 426.787 595.686C428.58 598.177 425.872 602.842 427.345 607.279C426.666 613.159 424.029 634.253 420.893 637.918C418.153 637.897 419.463 637.847 417.148 637.397C410.255 636.054 400.017 636.369 393.015 635.863L393.25 635.393C396.409 635.273 400.016 635.366 403.214 635.38C406.419 635.357 417.21 636.431 418.78 635.52C421.255 631.334 424.075 605.331 425.223 598.331Z"/><defs><linearGradient id="gradient_5" gradientUnits="userSpaceOnUse" x1="546.57147" y1="521.92383" x2="520.4516" y2="497.66901"><stop offset="0" stop-color="#F5B648"/><stop offset="1" stop-color="#FCDC7A"/></linearGradient></defs><path fill="url(#gradient_5)" d="M467.034 554.322C480.275 540.95 581.483 434.235 585.161 433.363C586.034 436.405 584.609 444.309 584.261 447.768C581.623 474.011 568.17 498.408 546.489 513.996C542.584 516.771 538.489 519.269 534.236 521.474C515.57 531.193 509.93 527.2 521.964 550.308C517.539 553.126 511.269 560.815 507.292 564.685C499.295 572.467 491.374 581.313 483.541 589.136C478.12 577.585 472.158 565.947 467.034 554.322Z"/><defs><linearGradient id="gradient_6" gradientUnits="userSpaceOnUse" x1="414.09903" y1="356.12256" x2="509.27618" y2="415.2124"><stop offset="0" stop-color="#F2AA33"/><stop offset="1" stop-color="#F8C75E"/></linearGradient></defs><path fill="url(#gradient_6)" d="M518.894 368.037C529.416 367.793 533.205 369.746 543.1 372.187C544.89 372.628 543.999 371.96 545.61 373.105C541.991 373.152 538.359 370.693 535.441 371.343C534.977 372.589 535.087 373.388 535.1 374.707C530.74 382.638 518.314 397.323 511.099 403.455C508.786 405.421 500.139 409.894 499.616 413.204C501.085 413.811 502.971 413.871 504.62 414.052C501.743 414.392 496.102 413.402 492.636 413.356L451.577 412.905C448.689 408.602 437.622 396.265 433.609 391.355C431.968 389.668 430.328 387.719 427.809 387.548C420.441 387.046 402.148 404.047 395.734 409.313C398.157 397.926 399.604 384.604 402.419 373.586L468.99 371.665C481.379 371.416 493.637 371.474 506.003 370.568C510.042 370.272 514.662 370.554 518.662 370.089L518.894 368.037Z"/><defs><linearGradient id="gradient_7" gradientUnits="userSpaceOnUse" x1="502.60608" y1="596.25751" x2="567.43732" y2="626.48193"><stop offset="0" stop-color="#F2A529"/><stop offset="1" stop-color="#FCCA64"/></linearGradient></defs><path fill="url(#gradient_7)" d="M521.964 550.308C523.966 554.319 531.286 568.032 532.543 571.532C535.384 578.216 563.534 634.656 563.493 636.727C551.448 636.663 539.404 636.673 527.36 636.758C521.923 636.781 511.69 637.077 506.533 636.55C502.647 628.742 498.272 619.787 494.696 611.83C491.057 605.73 486.467 595.709 483.541 589.136C491.374 581.313 499.295 572.467 507.292 564.685C511.269 560.815 517.539 553.126 521.964 550.308Z"/><path fill="#F6C36C" d="M521.964 550.308C523.966 554.319 531.286 568.032 532.543 571.532C524.638 580.791 515.588 589.486 507.276 598.371C504.871 600.942 496.065 609.305 494.696 611.83C491.057 605.73 486.467 595.709 483.541 589.136C491.374 581.313 499.295 572.467 507.292 564.685C511.269 560.815 517.539 553.126 521.964 550.308Z"/><path fill="#EB9A28" d="M778.281 406.817C788.859 410.514 802.335 413.412 813.243 416.623C814.713 417.055 822.224 419.461 822.876 419.557L824.244 423.777C826.422 432.86 828.447 441.978 830.32 451.128L831.448 457.228C832.878 466.815 833.576 474.362 834.176 483.982C834.357 485.306 834.539 486.32 834.505 487.669C834.668 494.733 835.066 502.665 834.933 509.634C834.976 513.591 835.187 518.396 834.587 522.221C834.439 526.411 834.039 531.028 833.965 535.084C833.533 537.68 833.623 541.672 833.207 543.441C831.609 551.859 830.722 560.905 829.269 569.509L828.612 573.882C816.301 569.564 793.307 561.56 781.355 558.616L782.101 553.624C783.926 544.309 785.271 534.907 786.131 525.454C786.849 523.627 786.246 522.092 786.782 519.646C787.566 513.417 787.677 505.603 787.916 499.204L787.989 495.02C787.948 488.237 787.778 481.455 787.477 474.678L787.297 470.406C786.197 463.006 786.165 452.099 784.994 443.287L784.541 439.086C783.138 429.793 781.33 420.567 779.123 411.432C778.705 409.842 778.525 408.433 778.281 406.817Z"/><path fill="#EB9A28" d="M786.782 519.646L787.18 521.022C796.996 525.14 821.507 531.701 832.767 535.488C833.166 535.353 833.566 535.218 833.965 535.084C833.533 537.68 833.623 541.672 833.207 543.441C831.609 551.859 830.722 560.905 829.269 569.509L828.612 573.882C816.301 569.564 793.307 561.56 781.355 558.616L782.101 553.624C783.926 544.309 785.271 534.907 786.131 525.454C786.849 523.627 786.246 522.092 786.782 519.646Z"/><path fill="#BF5D12" d="M786.782 519.646L787.18 521.022C796.996 525.14 821.507 531.701 832.767 535.488C833.166 535.353 833.566 535.218 833.965 535.084C833.533 537.68 833.623 541.672 833.207 543.441C833.222 541.775 833.255 541.666 832.876 539.963C831.274 538.66 789.582 525.644 786.131 525.454C786.849 523.627 786.246 522.092 786.782 519.646Z"/><path fill="#BF5D12" d="M782.101 553.624L782.482 554.896C787.008 557.029 827.853 569.905 829.269 569.509L828.612 573.882C816.301 569.564 793.307 561.56 781.355 558.616L782.101 553.624Z"/><path fill="#EB9A28" d="M778.281 406.817C788.859 410.514 802.335 413.412 813.243 416.623C814.713 417.055 822.224 419.461 822.876 419.557L824.244 423.777C826.422 432.86 828.447 441.978 830.32 451.128L831.448 457.228C816.091 452.166 800.601 447.517 784.994 443.287L784.541 439.086C783.138 429.793 781.33 420.567 779.123 411.432C778.705 409.842 778.525 408.433 778.281 406.817Z"/><path fill="#BF5D12" d="M784.541 439.086L813.847 447.818C818.533 449.219 824.855 450.842 829.288 452.445L830.16 452.075L830.32 451.128L831.448 457.228C816.091 452.166 800.601 447.517 784.994 443.287L784.541 439.086Z"/><path fill="#BF5D12" d="M778.281 406.817C788.859 410.514 802.335 413.412 813.243 416.623C814.713 417.055 822.224 419.461 822.876 419.557L824.244 423.777C813.696 421.655 802.158 416.994 791.64 414.307C787.967 413.368 782.79 411.653 779.123 411.432C778.705 409.842 778.525 408.433 778.281 406.817Z"/><path fill="#EB9A28" d="M784.994 443.287C800.601 447.517 816.091 452.166 831.448 457.228C832.878 466.815 833.576 474.362 834.176 483.982C832.218 483.602 830.285 482.987 828.382 482.394C816.646 478.74 804.972 474.892 792.973 472.174L787.297 470.406C786.197 463.006 786.165 452.099 784.994 443.287Z"/><path fill="#EB9A28" d="M787.297 470.406L792.973 472.174C804.972 474.892 816.646 478.74 828.382 482.394C830.285 482.987 832.218 483.602 834.176 483.982C834.357 485.306 834.539 486.32 834.505 487.669C834.668 494.733 835.066 502.665 834.933 509.634C832.763 509.795 792.836 496.536 787.989 495.02C787.948 488.237 787.778 481.455 787.477 474.678L787.297 470.406Z"/><path fill="#BF5D12" d="M792.973 472.174C804.972 474.892 816.646 478.74 828.382 482.394C830.285 482.987 832.218 483.602 834.176 483.982C834.357 485.306 834.539 486.32 834.505 487.669C822.634 484.484 804.999 480.008 793.859 476.108C793.613 474.035 792.577 475.299 792.973 472.174Z"/><path fill="#BF5D12" d="M787.297 470.406L792.973 472.174C792.577 475.299 793.613 474.035 793.859 476.108L787.477 474.678L787.297 470.406Z"/><path fill="#BF5D12" d="M787.989 495.02C792.836 496.536 832.763 509.795 834.933 509.634C834.976 513.591 835.187 518.396 834.587 522.221L834.632 513.661C829.034 511.585 821.968 509.544 816.149 507.634C807.13 504.674 797.102 501.25 787.916 499.204L787.989 495.02Z"/><path fill="#D67017" d="M762.162 622.465L763.692 618.754C767.001 619.439 777.173 622.686 780.774 623.884C788.844 626.57 804.696 630.28 811.817 633.911L810.823 636.771C806.84 646.074 802.656 655.288 798.274 664.409L796.41 667.785C791.547 677.29 786.321 687.758 780.37 696.573C779.902 697.285 778.87 698.959 778.362 699.517C774.614 705.691 766.094 718.246 761.533 723.759C761.206 724.149 759.785 725.897 759.497 726.111C753.324 733.775 746.976 741.295 740.457 748.666C731.628 744.364 715.463 740.742 705.82 737.095C701.538 735.476 697.641 734.774 693.319 732.486C699.64 725.034 705.101 718.59 711.24 710.927C712.123 709.715 712.595 709.277 713.635 708.217C719.146 701.083 724.718 692.185 729.726 684.542L731.138 682.474C732.059 680.683 733.649 678.256 734.783 676.606C739.832 669.259 743.727 661.6 747.697 653.626C747.88 653.078 748.78 651.536 749.105 650.942C753.868 641.644 758.225 632.142 762.162 622.465Z"/><path fill="#D67017" d="M762.162 622.465L763.692 618.754C767.001 619.439 777.173 622.686 780.774 623.884C788.844 626.57 804.696 630.28 811.817 633.911L810.823 636.771C806.84 646.074 802.656 655.288 798.274 664.409L796.41 667.785C792.883 667.074 786.083 664.767 782.341 663.699L747.697 653.626C747.88 653.078 748.78 651.536 749.105 650.942C753.868 641.644 758.225 632.142 762.162 622.465Z"/><path fill="#BF5D12" d="M762.162 622.465L763.692 618.754C767.001 619.439 777.173 622.686 780.774 623.884C788.844 626.57 804.696 630.28 811.817 633.911L810.823 636.771C795.501 633.108 778.259 626.259 762.162 622.465Z"/><path fill="#BF5D12" d="M749.105 650.942C752.216 651.436 755.522 652.25 758.551 653.148C771.663 657.034 785.296 660.184 798.274 664.409L796.41 667.785C792.883 667.074 786.083 664.767 782.341 663.699L747.697 653.626C747.88 653.078 748.78 651.536 749.105 650.942Z"/><path fill="#D67017" d="M711.24 710.927C712.123 709.715 712.595 709.277 713.635 708.217C723.592 711.81 732.794 714.44 742.922 717.434C747.797 718.874 757.559 721.456 761.533 723.759C761.206 724.149 759.785 725.897 759.497 726.111C753.324 733.775 746.976 741.295 740.457 748.666C731.628 744.364 715.463 740.742 705.82 737.095C701.538 735.476 697.641 734.774 693.319 732.486C699.64 725.034 705.101 718.59 711.24 710.927Z"/><path fill="#BF5D12" d="M711.24 710.927C712.123 709.715 712.595 709.277 713.635 708.217C723.592 711.81 732.794 714.44 742.922 717.434C747.797 718.874 757.559 721.456 761.533 723.759C761.206 724.149 759.785 725.897 759.497 726.111C750.863 723.357 716.859 714.827 711.24 710.927Z"/><path fill="#D67017" d="M729.726 684.542C738.841 687.353 747.792 690.48 756.998 693.199C761.401 694.5 775.097 697.989 778.362 699.517C774.614 705.691 766.094 718.246 761.533 723.759C757.559 721.456 747.797 718.874 742.922 717.434C732.794 714.44 723.592 711.81 713.635 708.217C719.146 701.083 724.718 692.185 729.726 684.542Z"/><path fill="#BF5D12" d="M731.138 682.474C736.21 683.028 747.586 686.516 752.854 688.07C761.418 690.596 772.158 693.334 780.37 696.573C779.902 697.285 778.87 698.959 778.362 699.517C775.097 697.989 761.401 694.5 756.998 693.199C747.792 690.48 738.841 687.353 729.726 684.542L731.138 682.474Z"/><path fill="#EB9A28" d="M693.319 732.486C697.641 734.774 701.538 735.476 705.82 737.095C715.463 740.742 731.628 744.364 740.457 748.666L738.047 751.124C730.774 758.521 724.139 765.334 716.211 772.079C715.511 772.714 714.32 773.916 713.553 774.301C706.828 780.558 696.252 789.199 688.374 794.124C687.571 794.704 685.976 795.975 685.15 796.271C678.813 800.699 671.756 805.493 664.996 809.267C652.317 803.842 630.904 797.298 617.402 793.114C625.056 789.106 629.439 786.163 636.344 781.228L639.487 778.851C650.367 771.764 655.344 766.844 665.184 759.476C666.124 758.593 667.114 757.757 668.09 756.912C675.333 750.724 683.307 742.459 690.159 735.664L693.319 732.486Z"/><path fill="#D67017" d="M693.319 732.486C697.641 734.774 701.538 735.476 705.82 737.095C715.463 740.742 731.628 744.364 740.457 748.666L738.047 751.124C730.774 758.521 724.139 765.334 716.211 772.079C712.474 769.874 705.142 768.225 700.825 766.828C690.432 763.463 678.235 760.731 668.09 756.912C675.333 750.724 683.307 742.459 690.159 735.664L693.319 732.486Z"/><path fill="#BF5D12" d="M693.319 732.486C697.641 734.774 701.538 735.476 705.82 737.095C715.463 740.742 731.628 744.364 740.457 748.666L738.047 751.124C736.163 750.026 733.99 749.559 731.926 748.9C718.017 744.458 703.846 740.779 690.159 735.664L693.319 732.486Z"/><defs><linearGradient id="gradient_8" gradientUnits="userSpaceOnUse" x1="635.34821" y1="809.52747" x2="666.65179" y2="779.47253"><stop offset="0" stop-color="#D8781A"/><stop offset="1" stop-color="#E89425"/></linearGradient></defs><path fill="url(#gradient_8)" d="M636.344 781.228C647.735 785.802 659.553 788.632 671.287 792.114C675.102 793.247 681.675 794.858 685.15 796.271C678.813 800.699 671.756 805.493 664.996 809.267C652.317 803.842 630.904 797.298 617.402 793.114C625.056 789.106 629.439 786.163 636.344 781.228Z"/><path fill="#BF5D12" d="M668.09 756.912C678.235 760.731 690.432 763.463 700.825 766.828C705.142 768.225 712.474 769.874 716.211 772.079C715.511 772.714 714.32 773.916 713.553 774.301C700.563 770.731 687.692 766.615 674.706 763.006C671.365 762.077 668.274 761.061 665.184 759.476C666.124 758.593 667.114 757.757 668.09 756.912Z"/><path fill="#BF5D12" d="M636.344 781.228L639.487 778.851C643.068 780.341 652.659 782.772 656.98 784.049C667.522 787.163 677.989 790.523 688.374 794.124C687.571 794.704 685.976 795.975 685.15 796.271C681.675 794.858 675.102 793.247 671.287 792.114C659.553 788.632 647.735 785.802 636.344 781.228Z"/><path fill="#EB9A28" d="M730.698 303.066C733.622 301.843 762.546 309.871 767.982 311.161C771.548 314.827 775.502 320.645 778.394 324.937C780.99 328.478 784.397 333.417 786.39 337.316L788.875 341.463C792.623 346.89 799.279 358.992 801.845 365.086L803.891 369.403C806.782 375.469 810.001 382.333 812.38 388.618L814.183 392.874C817.138 400.481 820.602 411.595 822.876 419.557C822.224 419.461 814.713 417.055 813.243 416.623C802.335 413.412 788.859 410.514 778.281 406.817C776.061 397.964 773.127 389.106 770.238 380.453C769.793 379.5 769.302 377.838 768.95 376.788C767.645 371.816 763.633 362.273 761.627 357.407C761.016 356.482 760.057 354.134 759.558 353.004C755.882 346.656 751.966 338.344 748.615 331.672C748.045 331.082 746.553 327.993 746.075 327.069L737.218 312.969C735.375 309.696 732.852 306.203 730.698 303.066Z"/><path fill="#EB9A28" d="M730.698 303.066C733.622 301.843 762.546 309.871 767.982 311.161C771.548 314.827 775.502 320.645 778.394 324.937C780.99 328.478 784.397 333.417 786.39 337.316L788.875 341.463C777.717 340.343 761.953 333.608 748.615 331.672C748.045 331.082 746.553 327.993 746.075 327.069L737.218 312.969C735.375 309.696 732.852 306.203 730.698 303.066Z"/><path fill="#FCE793" d="M730.698 303.066C733.622 301.843 762.546 309.871 767.982 311.161C771.548 314.827 775.502 320.645 778.394 324.937C775.643 324.938 768.02 323.532 764.981 323.046C758.519 322.049 752.046 321.128 745.563 320.282C742.963 317.964 740.154 313.294 737.218 312.969C735.375 309.696 732.852 306.203 730.698 303.066Z"/><path fill="#D67017" d="M746.075 327.069C759.681 331.546 773.31 333.153 786.39 337.316L788.875 341.463C777.717 340.343 761.953 333.608 748.615 331.672C748.045 331.082 746.553 327.993 746.075 327.069Z"/><path fill="#EB9A28" d="M748.615 331.672C761.953 333.608 777.717 340.343 788.875 341.463C792.623 346.89 799.279 358.992 801.845 365.086L803.891 369.403C789.533 366.924 774.507 359.498 761.627 357.407C761.016 356.482 760.057 354.134 759.558 353.004C755.882 346.656 751.966 338.344 748.615 331.672Z"/><path fill="#BF5D12" d="M759.558 353.004C765.42 354.296 799.057 365.736 801.845 365.086L803.891 369.403C789.533 366.924 774.507 359.498 761.627 357.407C761.016 356.482 760.057 354.134 759.558 353.004Z"/><path fill="#EB9A28" d="M761.627 357.407C774.507 359.498 789.533 366.924 803.891 369.403C806.782 375.469 810.001 382.333 812.38 388.618C809.922 388.428 802.21 385.813 799.479 385.068C789.564 382.365 778.995 378.734 768.95 376.788C767.645 371.816 763.633 362.273 761.627 357.407Z"/><path fill="#BF5D12" d="M768.95 376.788C778.995 378.734 789.564 382.365 799.479 385.068C802.21 385.813 809.922 388.428 812.38 388.618L814.183 392.874C798.612 389.429 785.479 384.592 770.238 380.453C769.793 379.5 769.302 377.838 768.95 376.788Z"/><path fill="#D67017" d="M781.355 558.616C793.307 561.56 816.301 569.564 828.612 573.882C826.928 582.756 824.944 590.89 822.814 599.673L821.849 603.71C818.913 612.912 815.395 625.149 811.817 633.911C804.696 630.28 788.844 626.57 780.774 623.884C777.173 622.686 767.001 619.439 763.692 618.754C768.167 607.233 770.45 599.592 774.074 587.845L774.723 585.378C775.259 584.192 775.506 583.07 775.86 581.813C778.35 574.352 779.836 566.337 781.355 558.616Z"/><path fill="#D67017" d="M781.355 558.616C793.307 561.56 816.301 569.564 828.612 573.882C826.928 582.756 824.944 590.89 822.814 599.673C815.107 597.53 806.902 594.609 799.124 592.304C793.685 590.693 785.458 588.763 780.563 586.875L774.723 585.378C775.259 584.192 775.506 583.07 775.86 581.813C778.35 574.352 779.836 566.337 781.355 558.616Z"/><path fill="#EB9A28" d="M775.86 581.813C778.157 582.661 779.016 582.801 780.812 584.361C781.123 585.089 781.421 585.257 781.105 586.025C780.834 586.681 780.991 586.449 780.563 586.875L774.723 585.378C775.259 584.192 775.506 583.07 775.86 581.813Z"/><path fill="#BF5D12" d="M774.723 585.378L780.563 586.875C785.458 588.763 793.685 590.693 799.124 592.304C806.902 594.609 815.107 597.53 822.814 599.673L821.849 603.71C808.835 598.166 788.969 593.694 774.074 587.845L774.723 585.378Z"/><path fill="#EB9A28" d="M613.455 795.522C614.695 794.551 616.026 793.89 617.402 793.114C630.904 797.298 652.317 803.842 664.996 809.267L661.841 811.196C654.454 815.122 643.351 821.384 635.975 824.532C634.43 825.281 633.252 825.952 631.573 826.352C626.919 828.295 621.546 830.678 616.889 832.434L605.867 836.244C604.632 836.747 603.225 837.411 601.957 837.687C598.17 838.72 591.776 840.255 588.264 841.507C581.119 834.694 568.29 828.717 560.454 822.226L558.376 821.036C560.318 819.916 562.667 819.225 564.801 818.57C568.729 817.032 572.677 815.547 576.645 814.117L577.872 813.706C581.079 812.016 582.838 811.162 586.212 809.879C587.86 808.974 588.764 808.554 590.504 807.836C598.819 804.006 605.49 799.909 613.455 795.522Z"/><path fill="#EB9A28" d="M586.212 809.879C596.456 813.278 606.638 816.861 616.754 820.625C619.574 821.649 629.407 825.108 631.573 826.352C626.919 828.295 621.546 830.678 616.889 832.434L605.867 836.244C604.632 836.747 603.225 837.411 601.957 837.687C598.17 838.72 591.776 840.255 588.264 841.507C581.119 834.694 568.29 828.717 560.454 822.226L558.376 821.036C560.318 819.916 562.667 819.225 564.801 818.57C568.729 817.032 572.677 815.547 576.645 814.117L577.872 813.706C581.079 812.016 582.838 811.162 586.212 809.879Z"/><path fill="#EB9A28" d="M564.801 818.57C568.729 817.032 572.677 815.547 576.645 814.117C577.126 817.331 601.102 833.462 605.005 835.344L605.867 836.244C604.632 836.747 603.225 837.411 601.957 837.687C598.17 838.72 591.776 840.255 588.264 841.507C581.119 834.694 568.29 828.717 560.454 822.226L558.376 821.036C560.318 819.916 562.667 819.225 564.801 818.57Z"/><path fill="#EB9A28" d="M564.801 818.57C568.729 817.032 572.677 815.547 576.645 814.117C577.126 817.331 601.102 833.462 605.005 835.344C604.675 835.414 602.843 835.709 602.774 835.676C592.458 830.639 574.342 823.396 564.801 818.57Z"/><path fill="#BF5D12" d="M558.376 821.036C560.318 819.916 562.667 819.225 564.801 818.57C574.342 823.396 592.458 830.639 602.774 835.676C602.843 835.709 604.675 835.414 605.005 835.344L605.867 836.244C604.632 836.747 603.225 837.411 601.957 837.687C601.023 837.208 601.584 837.429 600.713 837.193C591.129 834.592 581.608 830.105 572.304 826.574C568.829 825.256 563.92 822.595 560.454 822.226L558.376 821.036Z"/><path fill="#FAD267" d="M577.872 813.706C579.981 813.615 583.298 812.72 584.988 813.467C590.906 816.082 596.163 820.18 601.777 823.388C605.238 825.483 612.145 828.883 615.033 830.981C615.67 831.441 616.289 831.926 616.889 832.434L605.867 836.244L605.005 835.344C601.102 833.462 577.126 817.331 576.645 814.117L577.872 813.706Z"/><path fill="#BF5D12" d="M613.455 795.522C614.695 794.551 616.026 793.89 617.402 793.114C630.904 797.298 652.317 803.842 664.996 809.267L661.841 811.196C660.144 810.495 657.174 809.787 655.319 809.226C641.262 804.974 627.377 800.195 613.455 795.522Z"/><path fill="#BF5D12" d="M586.212 809.879C587.86 808.974 588.764 808.554 590.504 807.836C602.664 812.762 625.006 818.467 635.975 824.532C634.43 825.281 633.252 825.952 631.573 826.352C629.407 825.108 619.574 821.649 616.754 820.625C606.638 816.861 596.456 813.278 586.212 809.879Z"/><path fill="#EB9A28" d="M558.376 821.036L560.454 822.226C568.29 828.717 581.119 834.694 588.264 841.507L581.882 843.375C579.064 844.095 574.947 845.278 572.193 845.77C570.17 846.109 567.463 846.647 565.477 846.822C560.547 847.688 546.948 850.308 542.629 850.529C540.656 850.831 537.821 851.356 535.901 851.4C528.298 852.51 512.524 853.57 504.885 852.869L504.815 852.627C502.343 851.832 500.67 850.329 498.568 848.763C497.019 842.92 489.959 841.475 490.169 835.577C492.148 835.482 494.317 835.145 496.297 834.887L500.423 834.292C502.87 833.593 506.411 832.953 508.941 833.093L512.61 832.463C517.674 831.597 522.522 830.822 527.519 829.575C529.707 829.156 531.895 828.639 534.069 828.149C540.888 826.506 548.269 824.269 554.999 822.225L558.376 821.036Z"/><path fill="#EB9A28" d="M508.941 833.093L512.61 832.463C514.605 834.011 517.879 835.451 518.085 837.833C524.162 840.931 537.665 847.011 542.629 850.529C540.656 850.831 537.821 851.356 535.901 851.4C528.298 852.51 512.524 853.57 504.885 852.869L504.815 852.627C502.343 851.832 500.67 850.329 498.568 848.763C497.019 842.92 489.959 841.475 490.169 835.577C492.148 835.482 494.317 835.145 496.297 834.887L500.423 834.292C502.87 833.593 506.411 832.953 508.941 833.093Z"/><path fill="#FCE793" d="M490.169 835.577C492.148 835.482 494.317 835.145 496.297 834.887C502.616 840.871 513.529 846.597 519.019 852.411C514.435 852.502 509.361 852.713 504.815 852.627C502.343 851.832 500.67 850.329 498.568 848.763C497.019 842.92 489.959 841.475 490.169 835.577Z"/><path fill="#BF5D12" d="M508.941 833.093L512.61 832.463C514.605 834.011 517.879 835.451 518.085 837.833C524.162 840.931 537.665 847.011 542.629 850.529C540.656 850.831 537.821 851.356 535.901 851.4L535.51 850.622C532.341 848.382 504.554 835.616 500.423 834.292C502.87 833.593 506.411 832.953 508.941 833.093Z"/><path fill="#EB9A28" d="M508.941 833.093L512.61 832.463C514.605 834.011 517.879 835.451 518.085 837.833C514.798 836.505 511.841 835.142 508.941 833.093Z"/><path fill="#EB9A28" d="M527.519 829.575C532.894 831.851 539.851 835.022 545.113 837.347C548.653 838.91 563.035 844.31 565.271 846.116L565.477 846.822C560.547 847.688 546.948 850.308 542.629 850.529C537.665 847.011 524.162 840.931 518.085 837.833C517.879 835.451 514.605 834.011 512.61 832.463C517.674 831.597 522.522 830.822 527.519 829.575Z"/><path fill="#FAD267" d="M558.376 821.036L560.454 822.226C568.29 828.717 581.119 834.694 588.264 841.507L581.882 843.375C577.369 841.171 558.756 826.211 554.999 822.225L558.376 821.036Z"/><path fill="#BF5D12" d="M527.519 829.575C529.707 829.156 531.895 828.639 534.069 828.149C545.018 833.967 560.671 840.545 572.193 845.77C570.17 846.109 567.463 846.647 565.477 846.822L565.271 846.116C563.035 844.31 548.653 838.91 545.113 837.347C539.851 835.022 532.894 831.851 527.519 829.575Z"/><path fill="#F2AC34" d="M681.965 250.249C690.657 250.944 702.226 255.427 712.098 256.223C718.445 259.949 732.964 272.2 737.946 277.799C739.464 279.236 740.575 280.28 741.941 281.851C746.991 286.226 759.315 299.777 763.389 305.39L767.982 311.161C762.546 309.871 733.622 301.843 730.698 303.066C729.338 301.715 727.232 298.392 726.069 296.678C719.69 288.706 714.251 281.968 707.181 274.64C705.518 273.579 703.322 270.709 702.058 269.102C695.263 263.024 689.002 256.463 681.965 250.249Z"/><path fill="#F2AC34" d="M681.965 250.249C690.657 250.944 702.226 255.427 712.098 256.223C718.445 259.949 732.964 272.2 737.946 277.799C739.464 279.236 740.575 280.28 741.941 281.851C736.572 281.276 708.74 274.062 707.181 274.64C705.518 273.579 703.322 270.709 702.058 269.102C695.263 263.024 689.002 256.463 681.965 250.249Z"/><path fill="#D67017" d="M702.058 269.102C709.117 270.569 732.769 277.635 737.946 277.799C739.464 279.236 740.575 280.28 741.941 281.851C736.572 281.276 708.74 274.062 707.181 274.64C705.518 273.579 703.322 270.709 702.058 269.102Z"/><path fill="#D67017" d="M726.069 296.678C731.312 298.061 759.821 305.708 763.389 305.39L767.982 311.161C762.546 309.871 733.622 301.843 730.698 303.066C729.338 301.715 727.232 298.392 726.069 296.678Z"/><path fill="#F2AC34" d="M632.528 217.675C639.306 217.975 646.455 221.002 652.129 220.694C656.987 222.743 661.135 224.545 665.882 226.892C668.642 228.079 672.33 229.638 674.527 231.66C684.267 236.296 698.72 245.12 706.977 252.106C709.145 253.639 710.191 254.398 712.098 256.223C702.226 255.427 690.657 250.944 681.965 250.249C680.727 249.747 677.19 246.33 676.046 245.277C674.993 244.828 666.935 238.879 665.452 237.787C661.142 234.615 657.667 232.375 653.096 229.59C650.036 228.244 647.528 226.405 645.008 224.259C640.799 222.329 636.599 219.914 632.528 217.675Z"/><path fill="#D67017" d="M676.046 245.277C684.515 246.823 700.34 251.431 706.977 252.106C709.145 253.639 710.191 254.398 712.098 256.223C702.226 255.427 690.657 250.944 681.965 250.249C680.727 249.747 677.19 246.33 676.046 245.277Z"/><path fill="#F2AC34" d="M632.528 217.675C639.306 217.975 646.455 221.002 652.129 220.694C656.987 222.743 661.135 224.545 665.882 226.892C663.181 228.175 649.329 224.824 645.008 224.259C640.799 222.329 636.599 219.914 632.528 217.675Z"/><path fill="#D67017" d="M645.008 224.259C649.329 224.824 663.181 228.175 665.882 226.892C668.642 228.079 672.33 229.638 674.527 231.66C669.944 231.079 656.77 227.931 653.096 229.59C650.036 228.244 647.528 226.405 645.008 224.259Z"/><path fill="#EB9A28" d="M478.123 836.591C481.743 836.478 486.484 835.912 490.169 835.577C489.959 841.475 497.019 842.92 498.568 848.763C500.67 850.329 502.343 851.832 504.815 852.627L504.885 852.869C500.663 852.892 494.951 853.089 490.877 852.605C485.119 852.298 477.736 852.121 472.313 850.652C464.513 844.692 459.315 842.235 451.693 837.189L451.897 836.327C456.535 836.421 465.039 836.387 469.339 836.882C471.484 836.63 475.801 836.644 478.123 836.591Z"/><path fill="#BF5D12" d="M478.123 836.591C481.743 836.478 486.484 835.912 490.169 835.577C489.959 841.475 497.019 842.92 498.568 848.763C500.67 850.329 502.343 851.832 504.815 852.627L504.885 852.869C500.663 852.892 494.951 853.089 490.877 852.605C492.09 852.532 494.68 852.579 495.49 852.028C492.679 849.62 474.768 840.549 469.697 837.128L469.339 836.882C471.484 836.63 475.801 836.644 478.123 836.591Z"/><path fill="#FAD267" d="M478.123 836.591C481.743 836.478 486.484 835.912 490.169 835.577C489.959 841.475 497.019 842.92 498.568 848.763C494.618 846.185 479.27 838.573 478.123 836.591Z"/><path fill="#F2AC34" d="M410.833 832.207C413.013 831.543 414.294 831.359 416.499 832.362C421.244 832.959 424.706 833.579 429.389 834.579C433.369 835.105 437.356 835.574 441.35 835.985C443.43 835.646 450.212 835.383 451.897 836.327L451.693 837.189C459.315 842.235 464.513 844.692 472.313 850.652C469.694 850.592 467.551 850.642 464.972 850.112C457.909 849.49 446.892 846.979 439.63 845.525C434.016 845.532 426.264 842.884 421.042 840.785L420.874 839.609C418.634 837.382 413.545 834.049 410.833 832.207Z"/><defs><linearGradient id="gradient_9" gradientUnits="userSpaceOnUse" x1="422.03854" y1="840.84741" x2="424.76584" y2="837.50507"><stop offset="0" stop-color="#DA7B1F"/><stop offset="1" stop-color="#C3540E"/></linearGradient></defs><path fill="url(#gradient_9)" d="M410.833 832.207C413.013 831.543 414.294 831.359 416.499 832.362C421.244 832.959 424.706 833.579 429.389 834.579C429.097 836.704 429.039 838.12 427.026 839.343C430.552 841.929 435.41 844.346 439.63 845.525C434.016 845.532 426.264 842.884 421.042 840.785L420.874 839.609C418.634 837.382 413.545 834.049 410.833 832.207Z"/><path fill="#FAD267" d="M416.499 832.362C421.244 832.959 424.706 833.579 429.389 834.579C429.097 836.704 429.039 838.12 427.026 839.343C423.672 837.398 419.194 835.045 416.499 832.362Z"/><defs><linearGradient id="gradient_10" gradientUnits="userSpaceOnUse" x1="459.67679" y1="851.90204" x2="455.32321" y2="834.09796"><stop offset="0" stop-color="#C1580E"/><stop offset="1" stop-color="#D47016"/></linearGradient></defs><path fill="url(#gradient_10)" d="M441.35 835.985C443.43 835.646 450.212 835.383 451.897 836.327L451.693 837.189C459.315 842.235 464.513 844.692 472.313 850.652C469.694 850.592 467.551 850.642 464.972 850.112C460.858 846.401 446.584 837.683 441.35 835.985Z"/><path fill="#EB9A28" d="M364.638 818.345C371.207 820.285 377.738 823.081 384.718 825.13C392.484 827.41 403.803 829.485 410.833 832.207C413.545 834.049 418.634 837.382 420.874 839.609L421.042 840.785C406.772 837.001 376.599 826.351 364.638 818.345Z"/><path fill="#F6B73C" d="M619.635 211.54C614.632 209.405 609.552 207.456 604.406 205.696C600.678 204.4 594.145 202.412 590.994 200.675L591.433 200.96L592.215 200.623C603.725 202.901 629.322 210.58 640.171 215.134C642.824 216.072 649.802 219.192 652.129 220.694C646.455 221.002 639.306 217.975 632.528 217.675C628.497 215.567 623.793 213.489 619.635 211.54Z"/><path fill="#D67017" d="M619.635 211.54C625.938 211.713 636.083 217.911 640.171 215.134C642.824 216.072 649.802 219.192 652.129 220.694C646.455 221.002 639.306 217.975 632.528 217.675C628.497 215.567 623.793 213.489 619.635 211.54Z"/></svg>